# xmcd
#
# Track frame offsets:
#	150
#	10175
#	26427
#	43052
#	53952
#	67210
#	80842
#	94375
#	108235
#	122872
#	133855
#	150772
#
# Disc length: 2227 seconds
#
# Revision: 3
# Processed by: cddbd v1.5.2PL0 Copyright (c) Steve Scherf et al.
# Submitted via: EasyCDDAExtractor 12.0.1.1
#
DISCID=a108b10c
DTITLE=Rocio Durcal - Mi Historia
DYEAR=1997
DGENRE=Latin
TTITLE0=Amor En El Aire
TTITLE1=Los Piropos De Mi Barrio
TTITLE2=Pichi
TTITLE3=Cartel De Publicidad
TTITLE4=Mas Bonita Que Ninguna
TTITLE5=Tengo 17 Años
TTITLE6=Los Nardos
TTITLE7=Todo Es Mio
TTITLE8=Volver A Verte
TTITLE9=Trebole
TTITLE10=Cancion De Juventud
TTITLE11=Acompañame
EXTD=
EXTT0=
EXTT1=
EXTT2=
EXTT3=
EXTT4=
EXTT5=
EXTT6=
EXTT7=
EXTT8=
EXTT9=
EXTT10=
EXTT11=
PLAYORDER=
